<svg xmlns="http://www.w3.org/2000/svg" viewBox="0 0 448.45 506.54"><defs><style>.cls-1{fill:#494648;}.cls-2{fill:#ef5654;}.cls-3{fill:#fcb650;}.cls-4{fill:#58a0d7;}.cls-5{fill:#e35;}.cls-5,.cls-7{opacity:0.5;}.cls-6{fill:#ed1b30;}.cls-7{fill:none;stroke:#fff;stroke-miterlimit:10;stroke-width:5px;}</style></defs><g id="Layer_2" data-name="Layer 2"><g id="Layer_1-2" data-name="Layer 1"><path class="cls-1" d="M.14,253.75l.08-1.84a14.14,14.14,0,0,1,6.52-6.66c17.54-9.86,34.71-20.36,52.48-29.8.3-.16.59-.32.89-.46C72,209.44,72.92,201.83,64,193.2,51.39,181,47.49,165.43,49.3,148c2.16-20.9,13.27-35.11,31.46-44.12,21.22-10.51,47.87-4.64,62.2,9.65a64.9,64.9,0,0,1,16.09,27.07,27.81,27.81,0,0,0,1.92,5.13c2.87,5.19,7.52,6.75,12.63,3.84,16.18-9.22,32.35-18.44,48.31-28.05,4.53-2.74,9.36-5.06,14.16-7.36,2.49-1.2,4.78-1.18,6.82.9,1.79,2.49,1.6,5.37,1.61,8.19,0,22.65-.46,45.32.21,68,.34,11.54-10,16.44-19.07,13.45-29.95-9.88-62.62,11.34-66.32,41.85-2.86,23.64,11.76,48.49,34.49,55.6,11.17,3.49,22.48,3.7,33.69-.54,7.71-2.92,16.86,3.31,16.93,11.61.2,24,.13,48,0,71.95,0,2.65-.26,5.31-2.27,7.38-3.77,1.25-7.11.33-10.4-1.75-17.59-11.11-36.26-20.35-53.89-31.4a31.45,31.45,0,0,0-4.07-1.91C167,354.32,162.68,356,160.08,363c-1,2.65-2,5.31-2.89,8-6.09,17.62-18.14,30-35.9,34.48-28.42,7.1-55.85-1.21-68.54-32.77-8.78-21.83-4.61-42.45,11.73-60,.68-.73,1.42-1.41,2.09-2.15,5.56-6.12,4.83-12.45-2.3-16.62-9.76-5.7-19.71-11.08-29.52-16.69q-15.13-8.65-30.07-17.73C2.39,258.08,1.35,255.89.14,253.75Z"/><path class="cls-2" d="M241,391.85c1.23-2,1.07-4.15,1.07-6.31q0-35.21,0-70.42c0-9.05-6.3-13.34-14.75-10.54a53.94,53.94,0,0,1-63.76-24.45,59.49,59.49,0,0,1-7.83-25.47c-.57-9.22,2.34-18.75,6.91-27.18,7.83-14.45,20.44-23.21,36.07-26.73,8.93-2,18.44-2.37,27.5,1.29,7,2.81,16.32-.77,16.07-10.78-.61-25.46-.2-50.94-.2-76.41a1.75,1.75,0,0,1,2.18-.18c8.38,4,16.2,9,24.3,13.52,19.64,10.93,38.69,22.9,58.44,33.66,15.39,8.38,30.18,17.86,45.38,26.61q28.61,16.46,57.48,32.49c16.27,9,23.2,31.41,15.47,48-4.47,9.57-12.26,14.77-20.72,19.67-21.24,12.29-42.34,24.84-63.79,36.75-18.79,10.44-37.29,21.4-56,32-18.88,10.73-37.76,21.51-56.38,32.73a16.47,16.47,0,0,1-2.29,1c-1.18.26-1.87,1.3-2.89,1.8S241,393.88,241,391.85Z"/><path class="cls-3" d="M244.22,114.67l-2.18.18c-7.15,1.07-12.85,5.48-18.74,8.94-14.17,8.33-28.49,16.39-42.66,24.71-1.28.76-2.56,1.52-3.79,2.36-8.29,5.67-15.91,3.2-19.28-6.33-2-5.63-3.54-11.38-6.43-16.72-11.36-21-38.45-31.6-61.32-24.61C72,108.64,59.73,119.67,54.09,137.08c-6.24,19.24-3,40.12,12.48,55.38,9.55,9.4,8.65,17-3.11,23.59Q35.89,231.56,8.37,247.14c-2.74,1.54-5,3.84-8.15,4.77,0-2.83-.14-5.66-.14-8.49Q.07,141,0,38.61C0,21.86,7.43,9.66,22.48,3c12.2-5.42,24.11-3,35.62,3.88C75.31,17.22,93,26.8,110.4,36.82c10.35,6,20.52,12.24,30.88,18.19,24.92,14.32,50.05,28.29,74.8,42.89C225.48,103.45,235.38,108.18,244.22,114.67Z"/><path class="cls-4" d="M241,391.85c1.94,1.17,3.37-.94,5.16-.81-5.72,3.25-11.45,6.47-17.16,9.73-24.4,13.93-48.85,27.78-73.19,41.81-26.64,15.37-53,31.16-79.84,46.26-9.79,5.52-19.13,11.79-29.86,15.9-9.88,3.79-18.28,1-26.23-3.2C6.24,494.29,0,482.34,0,466.67Q.29,360.22.14,253.75,33.07,272.81,66,291.9c8.64,5,9.88,13.92,2.32,20.57-19.33,17-22.06,47.27-9.77,67,9.34,15,22.72,24.1,41,25.51s33.47-4.28,45.68-17.63a48.46,48.46,0,0,0,11.22-22c2.89-12.66,10.19-16.32,23.55-8.1,13.57,8.34,27.39,16.22,41.33,23.92C227.86,384.82,233.52,390,241,391.85Z"/><circle class="cls-5" cx="281.61" cy="360.28" r="132.44"/><circle class="cls-6" cx="280.72" cy="360.61" r="83.76"/><circle class="cls-7" cx="280.72" cy="360.61" r="103.64"/></g></g></svg>